<svg width="82" height="40" viewBox="0 0 82 40" fill="none" xmlns="http://www.w3.org/2000/svg">
<g clip-path="url(#clip0)">
<path d="M59.5367 6.54924C59.3187 6.34022 58.9474 6.20784 58.5196 6.14513C57.7528 6.02668 56.2838 6.09636 56.2838 5.79676C56.2838 5.5738 56.6793 5.42052 56.752 5.39265C56.9134 5.44142 57.1071 5.46232 57.3331 5.46929C58.2049 5.48323 59.2865 4.9119 59.3026 3.83891C59.3026 3.53931 59.1977 3.21184 59.0362 3.01676C59.2865 2.94708 59.6093 2.64051 59.569 2.09009C59.2945 2.34092 58.9717 2.38272 58.6084 2.38272H58.221C58.221 2.38272 57.8739 2.20157 57.3573 2.20157C56.3887 2.20157 55.3717 2.82864 55.3717 3.85285C55.3717 4.58443 55.9206 4.98854 56.1869 5.16272C55.8076 5.42052 55.4847 5.65044 55.4847 5.99185C55.4847 6.24268 55.6461 6.38899 55.7188 6.4517C56.3484 6.93942 57.7932 6.70253 58.6972 6.93942C59.2057 7.06483 59.2057 7.26689 59.2057 7.33656C59.2057 7.43411 59.1573 7.53165 59.0362 7.62223C58.9474 7.68493 58.4551 8.04724 57.4784 8.04724C56.5017 8.04724 55.9851 7.74764 55.9851 7.48985C55.9851 7.23205 56.2596 7.06483 56.8407 7.10664C56.6874 6.98122 56.421 6.77917 56.0497 6.77917C55.4282 6.78613 55.0488 7.21812 55.0488 7.6501C55.0488 8.01937 55.4363 8.66734 57.1636 8.66734C58.7457 8.66734 59.8353 7.9706 59.8353 7.23205C59.8434 6.97426 59.7304 6.73736 59.5367 6.54924ZM57.3654 2.70322C57.9223 2.70322 58.3905 3.17004 58.3905 3.83891C58.3905 4.52869 57.882 4.94673 57.3654 4.94673C56.8569 4.94673 56.3484 4.52869 56.3484 3.83891C56.3484 3.17701 56.8165 2.70322 57.3654 2.70322Z" fill="#E71984"/>
<path d="M26.5961 6.22894C26.1118 6.53551 26.0473 6.20804 26.0473 6.08263C26.0473 5.99205 26.0473 5.92935 26.0473 5.92935V3.62313C26.0473 2.69646 25.4338 2.20874 24.2715 2.20874C23.0042 2.20874 22.3504 2.90548 22.3181 2.93335L22.2536 3.00303L22.5199 3.17721L22.5764 3.13541C22.9881 2.87065 23.4966 2.70343 23.9325 2.70343C24.328 2.70343 25.1432 2.89852 25.1432 3.51165V3.81822C24.1746 3.98543 22.1729 4.32684 22.1729 5.60188C22.1729 6.53551 23.1092 6.78634 23.6661 6.78634C24.0051 6.78634 24.6428 6.61215 24.9657 6.18017V5.72032L24.8042 5.8318C24.6589 5.93631 24.4087 6.1105 23.989 6.1105C23.5854 6.1105 23.1576 5.92935 23.1576 5.42769C23.1576 4.95391 23.9002 4.54283 25.1432 4.34077V5.91541C25.1432 6.64699 25.5065 6.76544 25.7325 6.76544C25.9665 6.76544 26.241 6.64699 26.5881 6.41707L26.693 6.34042L26.5961 6.22894Z" fill="#E71984"/>
<path d="M40.5847 6.22894C40.0923 6.53551 40.0358 6.20804 40.0358 6.08263C40.0358 5.99205 40.0358 5.92935 40.0358 5.92935V3.62313C40.0358 2.69646 39.4223 2.20874 38.26 2.20874C36.9847 2.20874 36.339 2.90548 36.3067 2.93335L36.2421 3.00303L36.5085 3.17721L36.5569 3.13541C36.9686 2.87065 37.4771 2.70343 37.9129 2.70343C38.3085 2.70343 39.1237 2.89852 39.1237 3.51165V3.81822C38.1632 3.98543 36.1533 4.32684 36.1533 5.60188C36.1533 6.53551 37.0896 6.78634 37.6466 6.78634C37.9775 6.78634 38.6232 6.61215 38.9461 6.18017V5.72032L38.7928 5.8318C38.6394 5.93631 38.3892 6.1105 37.9694 6.1105C37.5659 6.1105 37.1381 5.92935 37.1381 5.42769C37.1381 4.95391 37.8807 4.54283 39.1237 4.34077V5.91541C39.1237 6.64699 39.4869 6.76544 39.7129 6.76544C39.9389 6.76544 40.2214 6.64699 40.5604 6.41707L40.6735 6.34042L40.5847 6.22894Z" fill="#E71984"/>
<path d="M47.6713 0C47.526 0.355339 47.0498 0.536492 47.0498 0.954537C47.0498 1.31684 47.6713 1.5189 47.6713 1.67915C47.6713 1.5189 48.2929 1.31684 48.2929 0.954537C48.2848 0.536492 47.8085 0.355339 47.6713 0Z" fill="#E71984"/>
<path d="M49.6084 2.24346V2.47339H49.8263C49.9555 2.47339 50.0604 2.56397 50.0604 2.67545V6.76533H51.0129V3.97835C51.0129 3.65089 51.3438 2.86357 52.159 2.86357C52.7967 2.86357 53.1034 3.18407 53.1034 3.84597V6.75836H54.516V6.5354H54.298C54.1689 6.5354 54.064 6.44483 54.064 6.33335V3.81114C54.064 3.03078 53.6523 2.20166 52.5384 2.20166C51.9411 2.20166 51.4165 2.43855 50.9725 2.8984V2.24346H49.6084Z" fill="#E71984"/>
<path d="M47.2755 6.75855H48.68V6.53559H48.4701C48.341 6.53559 48.236 6.44501 48.236 6.33353V2.24365H47.8728L46.8154 2.56415V2.76621H47.0334C47.1625 2.76621 47.2755 2.85679 47.2755 2.96827V6.75855Z" fill="#E71984"/>
<path d="M45.6859 5.7622L45.6536 5.81794C45.4841 6.09664 45.3146 6.22205 44.8142 6.22205C44.8142 6.22205 43.7407 6.22205 42.7398 6.22205L45.5487 2.6408V2.24365H41.8438L41.6098 3.19819L41.8196 3.23999L41.8519 3.18426C42.0214 2.91253 42.1909 2.78014 42.6914 2.78014C42.6914 2.78014 43.5308 2.78014 44.338 2.78014L41.5371 6.34747V6.75855H45.6536L45.8877 5.79704L45.6859 5.7622Z" fill="#E71984"/>
<path d="M35.0556 6.5354C34.9265 6.5354 34.8216 6.44483 34.8216 6.33335V3.81114C34.8216 3.03078 34.4099 2.20166 33.296 2.20166C32.6987 2.20166 32.1741 2.43855 31.7301 2.8984C31.6817 2.94718 31.6413 2.99595 31.609 3.04472C31.3992 2.57093 30.9794 2.20166 30.2369 2.20166C29.6476 2.20166 29.1472 2.43855 28.7113 2.8984V2.24346H27.3311V2.47339H27.549C27.6781 2.47339 27.7831 2.56397 27.7831 2.67545V6.76533H28.7355V3.97835C28.7355 3.65089 29.0342 2.86357 29.8413 2.86357C30.479 2.86357 30.7938 3.18407 30.7938 3.84597V6.75836H31.7543V3.98532V3.97139C31.7543 3.64392 32.0853 2.8566 32.9005 2.8566C33.5382 2.8566 33.853 3.1771 33.853 3.83901V6.75836H35.2655V6.5354H35.0556Z" fill="#E71984"/>
<path d="M19.9125 19.683C19.3959 19.683 19.2345 19.3346 19.2345 18.9096V9.90771H17.2731V14.1718H12.535V9.90771H10.5736V18.9096C10.5736 19.3277 10.4202 19.683 9.89557 19.683H9.46777V19.9896H12.535V15.4677H17.2731V19.9826H20.3403V19.676H19.9125V19.683Z" fill="#E71984"/>
<path d="M34.1348 9.90771V19.9826H37.202V19.676H36.7742C36.2576 19.676 36.0962 19.3277 36.0962 18.9027V9.90771H34.1348Z" fill="#E71984"/>
<path d="M46.6215 17.7043C46.5004 17.9203 46.3713 18.0944 46.2421 18.2268C46.113 18.3592 45.9677 18.4637 45.8063 18.5404C45.6448 18.617 45.4592 18.6658 45.2493 18.6936C45.0395 18.7215 44.7731 18.7354 44.4744 18.7354H41.7301C41.2619 18.7354 41.0601 18.5961 41.0601 18.3244V9.90771H39.0987V18.9096C39.0987 19.3277 38.9454 19.683 38.4288 19.683H38.001V19.9896H46.2664L46.8717 17.7461L46.6215 17.7043Z" fill="#E71984"/>
<path d="M68.3431 9.92261V17.1896L62.6607 9.92261H60.8607V18.9106C60.8607 19.3286 60.7073 19.684 60.1827 19.684H59.7549V19.9905H62.8221V12.835L68.4238 19.9836H70.2884V9.92261H68.3431Z" fill="#E71984"/>
<path d="M53.2563 21.3829C55.5729 19.1255 60.6096 22.1911 63.0553 20.7001C62.5306 21.5501 60.884 22.1354 60.2221 22.5883C57.4697 24.4416 57.8571 28.9495 55.3872 32.7398C52.4653 37.2199 45.8626 41.2192 37.5085 39.6585C30.0825 38.272 27.1041 33.4296 25.7561 30.3221C24.6019 27.6675 24.1983 27.0126 22.4629 25.6121C26.3373 26.72 28.0081 31.1234 34.9901 32.4263C40.6483 33.4784 47.4205 32.1406 51.2142 28.1552C54.4025 24.7969 54.6769 23.0063 56.8562 21.8776C55.9926 21.6895 54.9917 20.9161 53.2563 21.3829Z" fill="url(#paint0_linear)"/>
<path d="M26.8057 12.0466L27.9923 14.6036C28.8882 14.6454 29.7358 14.7778 30.4138 15.1262L27.9035 9.92847H26.4829L24.0049 15.1122C24.473 14.8823 25.0058 14.7499 25.5869 14.6733L26.8057 12.0466Z" fill="#E71984"/>
<path d="M52.6358 12.0466L53.8224 14.6036C54.7183 14.6454 55.5578 14.7778 56.2439 15.1262L53.7336 9.92847H52.313L49.835 15.1122C50.3031 14.8823 50.8439 14.7499 51.417 14.6733L52.6358 12.0466Z" fill="#E71984"/>
<path d="M9.25819 9.90771H0.113003L0 12.0816H0.258293C0.347081 11.7262 0.468156 11.3639 0.645733 11.2455C0.847524 11.0991 1.21075 11.0295 1.60626 11.0295H3.70489V19.9826H6.78019V19.676H6.3524C5.83581 19.676 5.67438 19.3277 5.67438 18.9027V11.0295H7.73265C8.12816 11.0295 8.42681 11.0991 8.6286 11.2246C8.79811 11.3569 8.96761 11.7262 9.06447 12.0816H9.34698L9.25819 9.90771Z" fill="#E71984"/>
<path d="M75.4211 9.92847C77.2291 9.92847 81.9995 10.235 81.9995 14.9799C81.9995 19.8292 76.8982 19.9825 74.9287 19.9825C73.161 19.9825 72.0713 19.9825 71.127 19.9825V19.6759H71.5548C72.0713 19.6759 72.2328 19.3275 72.2328 18.9025V9.92847H75.4211ZM74.2507 11.0224V18.9234H74.6623C76.2605 18.9234 77.6731 18.6308 78.7547 17.8226C79.8282 17.0143 79.9412 15.586 79.9412 14.9729C79.9412 14.3597 79.8282 13.0359 78.7627 12.1232C77.6892 11.2105 75.8166 11.0224 75.0336 11.0224H74.2507Z" fill="#E71984"/>
<path d="M27.2019 16.0738C27.9041 16.0738 28.8081 16.1365 29.3086 17.3767L29.7686 18.6448C30.0431 19.3136 30.6242 19.662 31.165 19.8223C31.6413 19.9616 32.287 19.9825 32.6422 19.9825H33.191V19.6829C32.5776 19.6829 32.1336 19.4669 31.7704 18.5681L31.1005 16.8541C30.6242 15.6418 29.4135 15.3074 27.1857 15.3074C24.966 15.3074 23.7472 15.6418 23.279 16.8541L22.6091 18.5681C22.2459 19.4669 21.8019 19.6829 21.1885 19.6829V19.9825H21.7373C22.0925 19.9825 22.7382 19.9616 23.2145 19.8223C23.7553 19.662 24.3445 19.3136 24.6189 18.6448L25.079 17.3767C25.5875 16.1365 26.4996 16.0738 27.2019 16.0738Z" fill="#FDC300"/>
<path d="M53.0229 16.0738C53.7251 16.0738 54.6292 16.1365 55.1296 17.3767L55.5897 18.6448C55.8641 19.3136 56.4534 19.662 56.9861 19.8223C57.4623 19.9616 58.1081 19.9825 58.4632 19.9825H59.0121V19.6829C58.3986 19.6829 57.9547 19.4669 57.5915 18.5681L56.9215 16.8541C56.4453 15.6418 55.2345 15.3074 53.0148 15.3074C50.7951 15.3074 49.5763 15.6418 49.1081 16.8541L48.4382 18.5681C48.075 19.4669 47.631 19.6829 47.0176 19.6829V19.9825H47.5665C47.9216 19.9825 48.5673 19.9616 49.0436 19.8223C49.5844 19.662 50.1655 19.3136 50.448 18.6448L50.9081 17.3767C51.4166 16.1365 52.3207 16.0738 53.0229 16.0738Z" fill="#FDC300"/>
</g>
<defs>
<linearGradient id="paint0_linear" x1="22.3877" y1="30.2639" x2="60.2086" y2="30.2639" gradientUnits="userSpaceOnUse">
<stop offset="0.00354751" stop-color="#C7017F"/>
<stop offset="0.25" stop-color="#D7007F"/>
<stop offset="0.5" stop-color="#E8308A"/>
<stop offset="0.75" stop-color="#F7A600"/>
<stop offset="1" stop-color="#FDC300"/>
</linearGradient>
<clipPath id="clip0">
<rect width="82" height="40" fill="white"/>
</clipPath>
</defs>
</svg>
