<svg xmlns="http://www.w3.org/2000/svg" width="93" height="93" fill="none" viewBox="0 0 93 93">
    <g clip-path="url(#a)">
        <path fill="#FDD600" d="M29.797 47.301h15.09c.572 0 1.112.324 1.42.833 9.644-2.715 18.578-7.298 24.256-11.572V10.84c0-2.345-1.836-4.197-4.197-4.197-2.345 0-4.197 1.836-4.197 4.197-4.845 5.015-15.846 11.326-27.913 14.736-.308-.51-.848-.834-1.42-.834h-15.09c-9.042 0-16.417 7.376-16.417 16.433 0 8.009 5.77 14.69 13.362 16.125 2.515-5.863 8.332-9.999 15.106-9.999z"/>
        <path fill="#F05361" d="M38.947 62.052v-29.07h-12.39c-3.132 0-11.372 4.166-11.372 15.106s8.888 14.196 11.372 14.196c2.469 0 12.39-.232 12.39-.232z"/>
        <path fill="#1D4F84" d="M38.916 85.66c-4.551 0-8.532-2.885-9.69-7.036l-4.505-14.86a3.106 3.106 0 0 1 2.052-3.857 3.106 3.106 0 0 1 3.858 2.053l4.52 14.92c.432 1.528 1.991 2.577 3.765 2.577 1.189 0 2.315-.524 2.994-1.388.386-.479.787-1.281.57-2.3l-3.718-12.004a3.066 3.066 0 0 1 2.037-3.858 3.079 3.079 0 0 1 3.857 2.037l3.75 12.128c.015.062.03.124.046.2.633 2.67.016 5.447-1.712 7.639-1.821 2.36-4.753 3.75-7.824 3.75zM79.513 59.815a1.548 1.548 0 0 1-1.543-1.543c0-.848.694-1.543 1.543-1.543 5.091 0 9.072-3.98 9.072-9.073 0-4.999-4.073-9.072-9.072-9.072a1.548 1.548 0 0 1-1.543-1.543c0-.85.694-1.543 1.543-1.543 6.712 0 12.158 5.462 12.158 12.158 0 6.82-5.338 12.16-12.158 12.16z"/>
        <path fill="#1D4F84" d="M75.763 82.76c-3.41 0-6.188-2.33-6.836-5.525-4.243-3.842-12.837-8.81-22.373-11.773a4.876 4.876 0 0 1-2.006.432H30.491c-10.137 0-18.392-8.255-18.392-18.392 0-10.138 8.255-18.393 18.392-18.393h14.057c.679 0 1.358.154 1.96.448 9.736-2.978 18.3-7.947 22.42-11.758.648-3.21 3.425-5.555 6.85-5.555 3.92 0 6.99 3.07 6.99 6.99v46.228a3.095 3.095 0 0 1-3.086 3.086 3.095 3.095 0 0 1-3.086-3.086V19.25c0-.478-.34-.817-.818-.817-.478 0-.817.339-.817.817 0 .803-.309 1.574-.864 2.145-5.355 5.524-16.619 11.511-27.389 14.55a3.066 3.066 0 0 1-2.87-.647H30.491c-6.743 0-12.22 5.477-12.22 12.22s5.477 12.22 12.22 12.22H43.9a3.092 3.092 0 0 1 2.87-.632c12.282 3.503 22.76 9.968 27.28 14.489a3.06 3.06 0 0 1 .91 2.176c0 .478.34.817.818.817.479 0 .818-.34.818-.817a3.095 3.095 0 0 1 3.086-3.086 3.095 3.095 0 0 1 3.086 3.086c-.015 3.919-3.086 6.99-7.005 6.99z"/>
        <path fill="#1D4F84" d="M45.86 63.595a1.548 1.548 0 0 1-1.544-1.543v-29.07c0-.849.695-1.543 1.543-1.543.85 0 1.543.694 1.543 1.543v29.086c0 .848-.694 1.527-1.543 1.527zM38.947 63.595a1.548 1.548 0 0 1-1.543-1.543v-29.07c0-.849.695-1.543 1.543-1.543.85 0 1.543.694 1.543 1.543v29.086c0 .848-.694 1.527-1.543 1.527z"/>
        <path fill="#1D4F84" d="M69.776 65.694a1.548 1.548 0 0 1-1.543-1.543v-1.28c0-.85.694-1.544 1.543-1.544s1.543.694 1.543 1.543v1.28c0 .865-.679 1.544-1.543 1.544zm0-5.895a1.548 1.548 0 0 1-1.543-1.542v-1.543c0-.85.694-1.544 1.543-1.544s1.543.695 1.543 1.544v1.543c0 .848-.679 1.543-1.543 1.543zm0-6.172a1.548 1.548 0 0 1-1.543-1.543v-1.543c0-.848.694-1.542 1.543-1.542s1.543.694 1.543 1.542v1.544c0 .848-.679 1.542-1.543 1.542zm0-6.172a1.548 1.548 0 0 1-1.543-1.542V44.37c0-.85.694-1.543 1.543-1.543s1.543.694 1.543 1.543v1.543c0 .848-.679 1.543-1.543 1.543zm0-6.172a1.548 1.548 0 0 1-1.543-1.543v-1.543c0-.848.694-1.543 1.543-1.543s1.543.695 1.543 1.543v1.543c0 .85-.679 1.543-1.543 1.543zm0-6.172a1.548 1.548 0 0 1-1.543-1.543v-1.543c0-.848.694-1.543 1.543-1.543s1.543.695 1.543 1.543v1.543c0 .85-.679 1.543-1.543 1.543z" opacity=".7"/>
    </g>
    <defs>
        <clipPath id="a">
            <path fill="#fff" d="M1.329 6.643h90.343V85.66H1.329z"/>
        </clipPath>
    </defs>
</svg>
