<svg width="70" height="70" viewBox="0 0 70 70" fill="none" xmlns="http://www.w3.org/2000/svg">
<path d="M9.87891 42.8013H15.2192C23.9015 42.8013 30.9467 49.8464 30.9467 58.5287H27.5596H10.4886L9.87891 42.8013Z" fill="#F05361"/>
<path d="M32.0643 59.6578H9.39335L8.69336 41.6724H15.2079C24.4998 41.6724 32.0643 49.2369 32.0643 58.5288V59.6578ZM11.5724 57.3998H29.7724C29.1966 49.8804 22.8853 43.9304 15.2192 43.9304H11.053L11.5724 57.3998Z" fill="#F05361"/>
<path d="M49.7681 1.12891H27.3794C20.2213 1.12891 14.3955 6.95471 14.3955 14.1128V19.0241H24.602C31.76 19.0241 37.5858 24.8499 37.5858 32.0079V38.7708H61.6229C62.2439 38.7708 62.752 38.2628 62.752 37.6418V14.1128C62.752 6.95471 56.9262 1.12891 49.7681 1.12891Z" fill="#FDD600"/>
<path d="M55.9775 60.5047H9.87913C8.78397 60.5047 7.90332 59.624 7.90332 58.5289V19.7579C7.90332 12.1369 14.113 5.92725 21.734 5.92725H44.1227C51.7436 5.92725 57.9533 12.1369 57.9533 19.7579V52.8724C57.9533 53.9676 57.0727 54.8482 55.9775 54.8482C54.8824 54.8482 54.0017 53.9676 54.0017 52.8724V19.7579C54.0017 14.3047 49.5759 9.87886 44.1227 9.87886H21.734C16.2807 9.87886 11.8549 14.3047 11.8549 19.7579V56.5531H55.9775C57.0727 56.5531 57.9533 57.4337 57.9533 58.5289C57.9533 59.624 57.0727 60.5047 55.9775 60.5047Z" fill="#1D4F84"/>
<path d="M48.3788 37.0771H17.4659C16.845 37.0771 16.3369 36.569 16.3369 35.9481V16.7545C16.3369 16.1336 16.845 15.6255 17.4659 15.6255H48.3788C48.9998 15.6255 49.5079 16.1336 49.5079 16.7545V35.9481C49.5079 36.569 49.0111 37.0771 48.3788 37.0771ZM18.595 34.819H47.2498V17.8836H18.595V34.819Z" fill="#1D4F84"/>
<path d="M21.8127 37.0774C21.3724 37.0774 20.9547 36.8178 20.774 36.3887C20.5369 35.8129 20.7966 35.1468 21.3724 34.9097L36.6369 28.4742C37.2127 28.2371 37.8789 28.4968 38.116 29.0726C38.3531 29.6484 38.0934 30.3145 37.5176 30.5516L22.2531 36.9871C22.1176 37.0436 21.9595 37.0774 21.8127 37.0774Z" fill="#1D4F84"/>
<g opacity="0.7">
<path opacity="0.7" d="M19.9162 24.3079C19.4759 24.3079 19.0582 24.0482 18.8775 23.6192C18.6404 23.0434 18.9001 22.3773 19.4759 22.1402L34.7404 15.7047C35.3162 15.4676 35.9824 15.7273 36.2195 16.3031C36.4566 16.8789 36.1969 17.545 35.6211 17.7821L20.3566 24.2176C20.2098 24.2853 20.063 24.3079 19.9162 24.3079Z" fill="#1D4F84"/>
</g>
<g opacity="0.7">
<path opacity="0.7" d="M32.9231 37.0774C32.4828 37.0774 32.065 36.8178 31.8844 36.3887C31.6473 35.8129 31.907 35.1468 32.4828 34.9097L47.7473 28.4742C48.3231 28.2371 48.9892 28.4968 49.2263 29.0726C49.4634 29.6484 49.2037 30.3145 48.6279 30.5516L33.3634 36.9871C33.2166 37.0436 33.0699 37.0774 32.9231 37.0774Z" fill="#1D4F84"/>
</g>
<g opacity="0.7">
<path opacity="0.7" d="M19.3627 54.8143C17.2401 54.8143 15.5127 53.0868 15.5127 50.9643C15.5127 48.8417 17.2401 47.1143 19.3627 47.1143C21.4853 47.1143 23.2127 48.8417 23.2127 50.9643C23.2127 53.0868 21.4853 54.8143 19.3627 54.8143ZM19.3627 49.3836C18.4821 49.3836 17.7708 50.0949 17.7708 50.9756C17.7708 51.8562 18.4821 52.5675 19.3627 52.5675C20.2433 52.5675 20.9546 51.8562 20.9546 50.9756C20.9546 50.0949 20.2433 49.3836 19.3627 49.3836Z" fill="#1D4F84"/>
</g>
<g opacity="0.7">
<path opacity="0.7" d="M46.4818 54.8143C44.3593 54.8143 42.6318 53.0868 42.6318 50.9643C42.6318 48.8417 44.3593 47.1143 46.4818 47.1143C48.6044 47.1143 50.3318 48.8417 50.3318 50.9643C50.3318 53.0868 48.6044 54.8143 46.4818 54.8143ZM46.4818 49.3836C45.6012 49.3836 44.8899 50.0949 44.8899 50.9756C44.8899 51.8562 45.6012 52.5675 46.4818 52.5675C47.3625 52.5675 48.0738 51.8562 48.0738 50.9756C48.0738 50.0949 47.3625 49.3836 46.4818 49.3836Z" fill="#1D4F84"/>
</g>
<path d="M13.4015 68.8258C12.916 68.8258 12.4305 68.6451 12.0579 68.2951C11.2563 67.55 11.2112 66.2967 11.9563 65.5064L19.7241 57.1741C20.4692 56.3725 21.7225 56.3274 22.5128 57.0725C23.3144 57.8177 23.3595 59.0709 22.6144 59.8612L14.8466 68.1935C14.4628 68.6112 13.9321 68.8258 13.4015 68.8258Z" fill="#1D4F84"/>
<path d="M52.4436 68.8258C51.913 68.8258 51.3824 68.6112 50.9985 68.1935L43.2307 59.8612C42.4856 59.0596 42.5307 57.8177 43.3323 57.0725C44.134 56.3274 45.3759 56.3725 46.1211 57.1741L53.8888 65.5064C54.634 66.308 54.5888 67.55 53.7872 68.2951C53.4146 68.6451 52.9291 68.8258 52.4436 68.8258Z" fill="#1D4F84"/>
<g opacity="0.7">
<g opacity="0.7">
<path opacity="0.7" d="M23.2248 41.6047H22.6603C22.0393 41.6047 21.5312 41.0967 21.5312 40.4757C21.5312 39.8547 22.0393 39.3467 22.6603 39.3467H23.2248C23.8458 39.3467 24.3538 39.8547 24.3538 40.4757C24.3538 41.0967 23.8458 41.6047 23.2248 41.6047Z" fill="#1D4F84"/>
</g>
<g opacity="0.7">
<path opacity="0.7" d="M39.5622 41.6047H38.546C37.9251 41.6047 37.417 41.0967 37.417 40.4757C37.417 39.8547 37.9251 39.3467 38.546 39.3467H39.5622C40.1831 39.3467 40.6912 39.8547 40.6912 40.4757C40.6912 41.0967 40.1831 41.6047 39.5622 41.6047ZM35.4751 41.6047H34.4589C33.838 41.6047 33.3299 41.0967 33.3299 40.4757C33.3299 39.8547 33.838 39.3467 34.4589 39.3467H35.4751C36.096 39.3467 36.6041 39.8547 36.6041 40.4757C36.6041 41.0967 36.1073 41.6047 35.4751 41.6047ZM31.3993 41.6047H30.3718C29.7509 41.6047 29.2428 41.0967 29.2428 40.4757C29.2428 39.8547 29.7509 39.3467 30.3718 39.3467H31.3993C32.0202 39.3467 32.5283 39.8547 32.5283 40.4757C32.5283 41.0967 32.0202 41.6047 31.3993 41.6047ZM27.3122 41.6047H26.296C25.6751 41.6047 25.167 41.0967 25.167 40.4757C25.167 39.8547 25.6751 39.3467 26.296 39.3467H27.3122C27.9331 39.3467 28.4412 39.8547 28.4412 40.4757C28.4412 41.0967 27.9331 41.6047 27.3122 41.6047Z" fill="#1D4F84"/>
</g>
<g opacity="0.7">
<path opacity="0.7" d="M43.1975 41.6047H42.6329C42.012 41.6047 41.5039 41.0967 41.5039 40.4757C41.5039 39.8547 42.012 39.3467 42.6329 39.3467H43.1975C43.8184 39.3467 44.3265 39.8547 44.3265 40.4757C44.3265 41.0967 43.8184 41.6047 43.1975 41.6047Z" fill="#1D4F84"/>
</g>
</g>
<g opacity="0.7">
<path opacity="0.7" d="M50.3326 65.7097H15.5245C14.9036 65.7097 14.3955 65.2017 14.3955 64.5807C14.3955 63.9597 14.9036 63.4517 15.5245 63.4517H50.3326C50.9536 63.4517 51.4616 63.9597 51.4616 64.5807C51.4616 65.2017 50.9536 65.7097 50.3326 65.7097Z" fill="#1D4F84"/>
</g>
<path d="M30.936 59.6578H27.5489C26.928 59.6578 26.4199 59.1498 26.4199 58.5288C26.4199 57.9078 26.928 57.3998 27.5489 57.3998H29.7619C29.186 49.8804 22.8748 43.9304 15.2086 43.9304H9.86829C9.24732 43.9304 8.73926 43.4224 8.73926 42.8014C8.73926 42.1804 9.24732 41.6724 9.86829 41.6724H15.2086C24.5006 41.6724 32.0651 49.2369 32.0651 58.5288C32.0651 59.1498 31.5683 59.6578 30.936 59.6578Z" fill="#1D4F84"/>
<path d="M38.2964 59.6578H34.9093C34.2883 59.6578 33.7803 59.1498 33.7803 58.5288C33.7803 49.2369 41.3448 41.6724 50.6367 41.6724H55.9771C56.598 41.6724 57.1061 42.1804 57.1061 42.8014C57.1061 43.4224 56.598 43.9304 55.9771 43.9304H50.6367C42.9706 43.9304 36.6593 49.8691 36.0835 57.3998H38.2964C38.9174 57.3998 39.4254 57.9078 39.4254 58.5288C39.4254 59.1498 38.9174 59.6578 38.2964 59.6578Z" fill="#1D4F84"/>
<path d="M32.9228 12.3739C35.4108 12.3739 37.4276 10.3571 37.4276 7.8691C37.4276 5.38114 35.4108 3.36426 32.9228 3.36426C30.4349 3.36426 28.418 5.38114 28.418 7.8691C28.418 10.3571 30.4349 12.3739 32.9228 12.3739Z" fill="#1D4F84"/>
<path d="M32.923 14.35C29.344 14.35 26.4424 11.4484 26.4424 7.86932C26.4424 4.29029 29.344 1.38867 32.923 1.38867C36.5021 1.38867 39.4037 4.29029 39.4037 7.86932C39.4037 11.4484 36.5021 14.35 32.923 14.35ZM32.923 5.34029C31.5343 5.34029 30.394 6.46932 30.394 7.86932C30.394 9.26932 31.523 10.3983 32.923 10.3983C34.323 10.3983 35.4521 9.26932 35.4521 7.86932C35.4521 6.46932 34.323 5.34029 32.923 5.34029Z" fill="#1D4F84"/>
</svg>
