<svg width="70" height="70" viewBox="0 0 70 70" fill="none" xmlns="http://www.w3.org/2000/svg">
<path d="M54 16.5001C52.4 16.5001 50.7 16.8001 49.2 17.3001C47.4 12.1001 42.5 8.6001 36.9 8.6001C30.1 8.6001 24.5 13.8001 23.9 20.4001C21 20.1001 18.3 20.7001 16 22.0001C17 21.8001 18.1 21.6001 19.2 21.6001C24.9 21.6001 29.8 25.1001 31.5 30.3001C33 29.8001 34.7 29.5001 36.3 29.5001C44.5 29.5001 51.3 36.1001 51.3 44.3001C51.3 44.9001 51.3 45.5001 51.2 46.0001H53.5H53.7C53.8 46.0001 54 46.0001 54.1 46.0001C54.2 46.0001 54.4 46.0001 54.5 46.0001H54.9C55 46.0001 55.1 46.0001 55.1 46.0001C62.9 45.4001 69 39.0001 69 31.3001C69 23.1001 62.3 16.5001 54 16.5001Z" fill="#FDD600"/>
<path d="M27.0004 16.4998C27.0004 19.0998 23.1004 17.0998 21.4004 18.6998C19.8004 20.1998 20.7004 27.0998 18.3004 27.0998C13.4004 27.0998 9.40039 23.0998 9.40039 18.1998C9.40039 13.2998 13.4004 9.2998 18.3004 9.2998C23.2004 9.2998 27.0004 11.5998 27.0004 16.4998Z" fill="#F05361"/>
<path d="M55.5998 48.4999C59.5998 46.0999 62.1998 41.7999 62.1998 36.8999C62.1998 29.3999 55.9998 23.2999 48.3998 23.2999C46.3998 23.2999 44.4998 23.6999 42.7998 24.4999C41.5998 19.2999 36.8998 15.3999 31.1998 15.3999C24.5998 15.3999 19.2998 20.6999 19.2998 27.0999C19.2998 27.1999 19.2998 27.2999 19.2998 27.3999C18.4998 27.1999 17.5998 27.0999 16.6998 27.0999C10.0998 27.0999 4.7998 32.3999 4.7998 38.7999C4.7998 45.2999 10.0998 50.4999 16.6998 50.4999C16.8998 50.4999 17.0998 50.4999 17.2998 50.4999H25.0998" stroke="#1D4F84" stroke-width="4" stroke-miterlimit="10" stroke-linecap="round" stroke-linejoin="round"/>
<path d="M26.2003 16.0999C25.2003 12.3999 22.0003 9.59989 18.0003 9.29989C12.9003 8.89989 8.40033 12.6999 8.00033 17.7999C7.70033 21.3999 9.50033 24.5999 12.3003 26.3999C12.3003 26.3999 13.5003 26.9999 14.3003 27.1999" stroke="#1D4F84" stroke-width="4" stroke-miterlimit="10" stroke-linecap="round" stroke-linejoin="round"/>
<path opacity="0.7" d="M18.2 2L18 4.8" stroke="#1D4F84" stroke-width="2" stroke-miterlimit="10" stroke-linecap="round" stroke-linejoin="round"/>
<path opacity="0.7" d="M1 16.7998L3.8 17.0998" stroke="#1D4F84" stroke-width="2" stroke-miterlimit="10" stroke-linecap="round" stroke-linejoin="round"/>
<path opacity="0.7" d="M6.2002 6.2002L8.0002 8.30019" stroke="#1D4F84" stroke-width="2" stroke-miterlimit="10" stroke-linecap="round" stroke-linejoin="round"/>
<path opacity="0.7" d="M29.5004 6.8999L27.4004 8.69991" stroke="#1D4F84" stroke-width="2" stroke-miterlimit="10" stroke-linecap="round" stroke-linejoin="round"/>
<path opacity="0.7" d="M3.40039 27.5002L5.50039 25.7002" stroke="#1D4F84" stroke-width="2" stroke-miterlimit="10" stroke-linecap="round" stroke-linejoin="round"/>
<path opacity="0.7" d="M22.1004 61.5001C20.9004 62.7001 19.0004 62.7001 17.8004 61.5001C16.6004 60.3001 16.6004 58.4001 17.8004 57.2001C19.0004 56.0001 23.7004 55.6001 23.7004 55.6001C23.7004 55.6001 23.3004 60.3001 22.1004 61.5001Z" stroke="#1D4F84" stroke-width="2" stroke-miterlimit="10" stroke-linecap="round" stroke-linejoin="round"/>
<path d="M40.9002 43.7L30.0002 54.6H37.7002L24.7002 67.6L49.9002 51.4H40.5002L51.2002 43.5L40.9002 43.7Z" stroke="#1D4F84" stroke-width="2" stroke-miterlimit="10" stroke-linecap="round" stroke-linejoin="round"/>
</svg>
