<svg width="70" height="70" viewBox="0 0 70 70" fill="none" xmlns="http://www.w3.org/2000/svg">
<mask id="mask0" mask-type="alpha" maskUnits="userSpaceOnUse" x="0" y="0" width="70" height="70">
<rect width="70" height="70" fill="#C4C4C4"/>
</mask>
<g mask="url(#mask0)">
<path d="M54.3998 8.47656H33.9998C29.4998 8.47656 25.7998 12.1766 25.7998 16.6766V34.2766H40.8998C43.0998 34.2766 44.9998 36.0766 44.9998 38.3766V61.2766H57.5998C59.7998 61.2766 61.6998 59.4766 61.6998 57.1766V15.6766C61.5998 11.6766 58.3998 8.47656 54.3998 8.47656Z" fill="#FDD600"/>
<path d="M29.5001 51.0766C29.1001 51.0766 28.7001 50.8766 28.6001 50.4766C28.4001 49.9766 28.6001 49.3766 29.1001 49.1766L48.5001 40.5766C49.0001 40.3766 49.6001 40.5766 49.8001 41.0766C50.0001 41.5766 49.8001 42.1766 49.3001 42.3766L29.9001 50.9766C29.8001 51.0766 29.6001 51.0766 29.5001 51.0766Z" fill="#1D4F84"/>
<g opacity="0.7">
<path opacity="0.7" d="M28.7003 32.4764C28.3003 32.4764 27.9003 32.2764 27.8003 31.8764C27.6003 31.3764 27.8003 30.7764 28.3003 30.5764L40.6003 25.3764C41.1003 25.1764 41.7003 25.3764 41.9003 25.8764C42.1003 26.3764 41.9003 26.9764 41.4003 27.1764L29.1003 32.3764C28.9003 32.4764 28.8003 32.4764 28.7003 32.4764Z" fill="#1D4F84"/>
</g>
<g opacity="0.7">
<path opacity="0.7" d="M41.6007 51.0763C41.2007 51.0763 40.9007 50.8763 40.7007 50.4763C40.5007 49.9763 40.7007 49.3763 41.2007 49.1763L48.5007 45.7763C49.0007 45.5763 49.6007 45.7763 49.8007 46.2763C50.0007 46.7763 49.8007 47.3763 49.3007 47.5763L42.0007 50.9763C41.9007 51.0763 41.8007 51.0763 41.6007 51.0763Z" fill="#1D4F84"/>
</g>
<path d="M52.3002 69.7766H25.6002C22.3002 69.7766 19.7002 67.0766 19.7002 63.8766V17.8766C19.7002 14.5766 22.4002 11.9766 25.6002 11.9766H47.1002C48.2002 11.9766 49.1002 12.8766 49.1002 13.9766C49.1002 15.0766 48.2002 15.9766 47.1002 15.9766H25.6002C24.5002 15.9766 23.7002 16.8766 23.7002 17.8766V63.8766C23.7002 64.9766 24.6002 65.7766 25.6002 65.7766H52.3002C53.4002 65.7766 54.2002 64.8766 54.2002 63.8766V28.8766C54.2002 27.7766 55.1002 26.8766 56.2002 26.8766C57.3002 26.8766 58.2002 27.7766 58.2002 28.8766V63.8766C58.2002 67.0766 55.5002 69.7766 52.3002 69.7766Z" fill="#1D4F84"/>
<path d="M47.8004 56.4769H30.0004C28.6004 56.4769 27.4004 55.2769 27.4004 53.8769V22.3769C27.4004 20.9769 28.6004 19.7769 30.0004 19.7769H47.8004C48.4004 19.7769 48.8004 20.1769 48.8004 20.7769C48.8004 21.3769 48.4004 21.7769 47.8004 21.7769H30.0004C29.7004 21.7769 29.4004 22.0769 29.4004 22.3769V53.8769C29.4004 54.1769 29.7004 54.4769 30.0004 54.4769H47.8004C48.1004 54.4769 48.4004 54.1769 48.4004 53.8769L48.5004 27.5769C48.5004 26.9769 48.9004 26.5769 49.5004 26.5769C50.1004 26.5769 50.5004 27.0769 50.5004 27.5769L50.4004 53.8769C50.4004 55.2769 49.3004 56.4769 47.8004 56.4769Z" fill="#1D4F84"/>
<path d="M38.8998 64.0765C37.1998 64.0765 35.7998 62.6765 35.7998 60.9765C35.7998 59.2765 37.1998 57.8765 38.8998 57.8765C40.5998 57.8765 41.9998 59.2765 41.9998 60.9765C41.9998 62.6765 40.5998 64.0765 38.8998 64.0765ZM38.8998 59.8765C38.2998 59.8765 37.7998 60.3765 37.7998 60.9765C37.7998 61.5765 38.2998 62.0765 38.8998 62.0765C39.4998 62.0765 39.9998 61.5765 39.9998 60.9765C39.9998 60.3765 39.4998 59.8765 38.8998 59.8765Z" fill="#1D4F84"/>
<path d="M50.6997 7.27686L43.9997 19.4769C43.0997 20.9769 44.2997 22.8769 45.9997 22.8769H52.6997H59.3997C61.1997 22.8769 62.2997 20.9769 61.3997 19.4769L54.6997 7.27686C53.8997 5.77686 51.5997 5.77686 50.6997 7.27686Z" fill="#F05361"/>
<path d="M59.5 23.8768H52.8H46.1C44.9 23.8768 43.8 23.2768 43.2 22.2768C42.6 21.2768 42.6 19.9768 43.2 18.9768L49.9 6.87676C50.5 5.77676 51.6 5.17676 52.8 5.17676C54 5.17676 55.1 5.77676 55.7 6.87676L62.4 19.0768C63 20.0768 63 21.3768 62.4 22.3768C61.7 23.2768 60.7 23.8768 59.5 23.8768ZM52.8 21.8768H59.5C60 21.8768 60.4 21.6768 60.6 21.2768C60.8 20.8768 60.9 20.3768 60.6 19.9768L53.9 7.77676C53.7 7.37676 53.2 7.07676 52.7 7.07676C52.2 7.07676 51.8 7.37676 51.5 7.77676L44.8 19.9768C44.6 20.3768 44.6 20.8768 44.8 21.2768C45 21.6768 45.5 21.8768 45.9 21.8768H52.8Z" fill="#1D4F84"/>
<path d="M52.7998 16.8768C52.1998 16.8768 51.7998 16.4768 51.7998 15.8768V11.1768C51.7998 10.5768 52.1998 10.1768 52.7998 10.1768C53.3998 10.1768 53.7998 10.5768 53.7998 11.1768V15.8768C53.7998 16.4768 53.2998 16.8768 52.7998 16.8768Z" fill="#1D4F84"/>
<path d="M52.7 20.277C53.3627 20.277 53.9 19.7397 53.9 19.077C53.9 18.4142 53.3627 17.877 52.7 17.877C52.0373 17.877 51.5 18.4142 51.5 19.077C51.5 19.7397 52.0373 20.277 52.7 20.277Z" fill="#1D4F84"/>
<path d="M14.3002 17.8764C13.8002 17.8764 13.4002 17.5764 13.3002 17.0764C13.2002 16.5764 13.2002 15.9764 13.2002 15.4764C13.2002 10.6764 16.8002 6.67645 21.5002 6.17645C22.1002 6.07645 22.5002 6.47645 22.6002 7.07645C22.7002 7.57645 22.3002 8.07645 21.7002 8.17645C18.0002 8.57645 15.1002 11.6764 15.1002 15.4764C15.1002 15.8764 15.1002 16.3764 15.2002 16.7764C15.3002 17.2764 14.9002 17.8764 14.4002 17.9764C14.4002 17.8764 14.4002 17.8764 14.3002 17.8764Z" fill="#1D4F84"/>
<g opacity="0.7">
<path opacity="0.7" d="M8 16.5766C7.5 16.5766 7 16.1766 7 15.5766C7 15.3766 7 15.1766 7 15.0766C7 14.8766 7 14.6766 7 14.5766C7 13.9766 7.5 13.5766 8 13.5766C8.6 13.5766 9 14.0766 9 14.5766C9 14.7766 9 14.8766 9 15.0766C9 15.2766 9 15.3766 9 15.5766C9 16.0766 8.6 16.5766 8 16.5766ZM8.39999 12.5766C8.29999 12.5766 8.2 12.5766 8.2 12.5766C7.7 12.4766 7.3 11.8766 7.5 11.3766C7.6 11.0766 7.7 10.6766 7.8 10.3766C8 9.87664 8.5 9.57664 9.1 9.77664C9.6 9.97664 9.9 10.4766 9.7 11.0766C9.6 11.3766 9.49999 11.6766 9.39999 11.9766C9.19999 12.2766 8.79999 12.5766 8.39999 12.5766ZM9.89999 8.87664C9.69999 8.87664 9.59999 8.87664 9.39999 8.77664C8.89999 8.47664 8.8 7.87664 9 7.37664C9.2 7.07664 9.4 6.77664 9.6 6.47664C9.9 5.97664 10.5 5.87664 11 6.17664C11.5 6.47664 11.6 7.07664 11.3 7.57664C11.1 7.87664 11 8.07664 10.8 8.37664C10.6 8.67664 10.3 8.87664 9.89999 8.87664ZM12.4 5.77664C12.1 5.77664 11.9 5.67664 11.7 5.47664C11.3 5.07664 11.3 4.47664 11.7 4.07664C12 3.87664 12.2 3.57664 12.5 3.37664C12.9 3.07664 13.6 3.07664 13.9 3.47664C14.3 3.87664 14.2 4.57664 13.8 4.87664C13.6 5.07664 13.3 5.27664 13.1 5.47664C12.9 5.67664 12.6 5.77664 12.4 5.77664ZM15.7 3.47664C15.3 3.47664 15 3.27664 14.8 2.97664C14.5 2.47664 14.7 1.87664 15.2 1.57664C15.5 1.37664 15.8 1.27664 16.2 1.07664C16.7 0.876641 17.3 1.07664 17.5 1.57664C17.7 2.07664 17.5 2.67664 17 2.87664C16.7 2.97664 16.4 3.17664 16.2 3.27664C16 3.47664 15.8 3.47664 15.7 3.47664Z" fill="#1D4F84"/>
</g>
</g>
</svg>
