<svg width="70" height="70" viewBox="0 0 70 70" fill="none" xmlns="http://www.w3.org/2000/svg">
<mask id="mask0" mask-type="alpha" maskUnits="userSpaceOnUse" x="0" y="0" width="70" height="70">
<rect width="70" height="70" fill="#C4C4C4"/>
</mask>
<g mask="url(#mask0)">
<path d="M35.5 55.7002C47.3741 55.7002 57 46.0743 57 34.2002C57 22.3261 47.3741 12.7002 35.5 12.7002C23.6259 12.7002 14 22.3261 14 34.2002C14 46.0743 23.6259 55.7002 35.5 55.7002Z" fill="#FDD600"/>
<path d="M54.9003 61.9C50.0003 61.9 45.4003 59.2 43.0003 54.9C42.7003 54.4 42.9003 53.8 43.4003 53.5C43.9003 53.2 44.5003 53.4 44.8003 53.9C46.8003 57.6 50.7003 59.9 55.0003 59.9C57.0003 59.9 58.9003 59.4 60.6003 58.4C60.8003 58.3 61.1003 58.2 61.4003 58.3L66.3003 59.2L65.3003 53.9C65.2003 53.7 65.3003 53.4 65.4003 53.2C66.2003 51.6 66.6003 49.9 66.6003 48.1C66.6003 41.7 61.4003 36.5 55.0003 36.5C53.7003 36.5 52.4003 36.7 51.2003 37.1C50.7003 37.3 50.1003 37 49.9003 36.5C49.7003 36 50.0003 35.4 50.5003 35.2C51.9003 34.7 53.4003 34.5 55.0003 34.5C62.5003 34.5 68.6003 40.6 68.6003 48.1C68.6003 50.1 68.2003 52 67.4003 53.7L68.6003 60.1C68.7003 60.4 68.6003 60.8 68.3003 61C68.0003 61.2 67.7003 61.3 67.4003 61.3L61.3003 60.1C59.3003 61.4 57.1003 61.9 54.9003 61.9Z" fill="#1D4F84"/>
<path d="M3.7 60.4C3.2 60.4 2.7 60.2 2.3 59.8C1.8 59.3 1.6 58.7 1.8 58L4 46.3C2 42.6 1 38.4 1 34.2C1 19.8 12.7 8 27.2 8C41.7 8 53.4 19.7 53.4 34.2C53.4 48.7 41.7 60.4 27.2 60.4C23.8 60.4 20.5 59.8 17.4 58.5C16.4 58.1 15.9 56.9 16.3 55.9C16.7 54.9 17.9 54.4 18.9 54.8C21.5 55.9 24.3 56.4 27.2 56.4C39.4 56.4 49.4 46.5 49.4 34.2C49.4 21.9 39.5 12 27.2 12C14.9 12 5 22 5 34.2C5 38 6 41.7 7.8 45C8.1 45.5 8.1 46 8 46.5L6.2 55.9L10.9 55C12 54.8 13 55.5 13.2 56.6C13.4 57.7 12.7 58.7 11.6 58.9L4 60.3C3.9 60.4 3.8 60.4 3.7 60.4Z" fill="#1D4F84"/>
<path d="M26.6996 41.5002C25.5996 41.5002 24.6996 40.6002 24.6996 39.5002C24.6996 36.7002 26.1996 34.2002 28.5996 32.7002C29.6996 32.0002 30.3996 30.8002 30.3996 29.5002C30.3996 27.7002 28.7996 26.3002 26.7996 26.3002C26.7996 26.3002 26.7996 26.3002 26.6996 26.3002C25.5996 26.3002 24.5996 26.7002 23.9996 27.3002C23.3996 27.9002 23.0996 28.7002 23.0996 29.5002C23.0996 30.6002 22.1996 31.5002 21.0996 31.5002C19.9996 31.5002 19.0996 30.6002 19.0996 29.5002C19.0996 27.6002 19.7996 25.7002 21.1996 24.4002C22.6996 23.0002 24.6996 22.2002 26.8996 22.2002C31.0996 22.3002 34.3996 25.4002 34.4996 29.4002C34.4996 32.1002 33.0996 34.6002 30.7996 36.0002C29.4996 36.8002 28.7996 38.0002 28.7996 39.4002C28.6996 40.6002 27.8996 41.5002 26.6996 41.5002Z" fill="#1D4F84"/>
<path d="M26.6996 49.5003C28.1356 49.5003 29.2996 48.3362 29.2996 46.9003C29.2996 45.4644 28.1356 44.3003 26.6996 44.3003C25.2637 44.3003 24.0996 45.4644 24.0996 46.9003C24.0996 48.3362 25.2637 49.5003 26.6996 49.5003Z" fill="#1D4F84"/>
<path d="M46.4998 25.6998C50.7524 25.6998 54.1998 22.2524 54.1998 17.9998C54.1998 13.7472 50.7524 10.2998 46.4998 10.2998C42.2472 10.2998 38.7998 13.7472 38.7998 17.9998C38.7998 22.2524 42.2472 25.6998 46.4998 25.6998Z" fill="#F05361"/>
<path d="M46.4998 26.7999C41.6998 26.7999 37.7998 22.8999 37.7998 18.0999C37.7998 13.2999 41.6998 9.3999 46.4998 9.3999C51.2998 9.3999 55.1998 13.2999 55.1998 18.0999C55.1998 22.8999 51.2998 26.7999 46.4998 26.7999ZM46.4998 11.2999C42.7998 11.2999 39.7998 14.2999 39.7998 17.9999C39.7998 21.6999 42.7998 24.6999 46.4998 24.6999C50.1998 24.6999 53.1998 21.6999 53.1998 17.9999C53.1998 14.2999 50.1998 11.2999 46.4998 11.2999Z" fill="#1D4F84"/>
<path d="M46.5 22.4997C45.9 22.4997 45.5 22.0997 45.5 21.4997V17.6997C45.5 17.0997 45.9 16.6997 46.5 16.6997C47.1 16.6997 47.5 17.0997 47.5 17.6997V21.4997C47.5 22.0997 47 22.4997 46.5 22.4997Z" fill="#1D4F84"/>
<path d="M46.5 15.2998C45.9 15.2998 45.5 14.8998 45.5 14.2998C45.5 13.6998 45.9 13.2998 46.5 13.2998C47.1 13.2998 47.5 13.6998 47.5 14.2998C47.5 14.8998 47 15.2998 46.5 15.2998Z" fill="#1D4F84"/>
<path d="M61.0004 45.1001H50.4004C49.8004 45.1001 49.4004 44.7001 49.4004 44.1001C49.4004 43.5001 49.8004 43.1001 50.4004 43.1001H61.0004C61.6004 43.1001 62.0004 43.5001 62.0004 44.1001C62.0004 44.7001 61.6004 45.1001 61.0004 45.1001Z" fill="#1D4F84"/>
<path d="M61.0004 49.7002H50.4004C49.8004 49.7002 49.4004 49.3002 49.4004 48.7002C49.4004 48.1002 49.8004 47.7002 50.4004 47.7002H61.0004C61.6004 47.7002 62.0004 48.1002 62.0004 48.7002C62.0004 49.3002 61.6004 49.7002 61.0004 49.7002Z" fill="#1D4F84"/>
<g opacity="0.7">
<path opacity="0.7" d="M59.4004 54.3999H58.4004C57.8004 54.3999 57.4004 53.9999 57.4004 53.3999C57.4004 52.7999 57.8004 52.3999 58.4004 52.3999H59.4004C60.0004 52.3999 60.4004 52.7999 60.4004 53.3999C60.4004 53.9999 59.9004 54.3999 59.4004 54.3999ZM55.4004 54.3999H54.4004C53.8004 54.3999 53.4004 53.9999 53.4004 53.3999C53.4004 52.7999 53.8004 52.3999 54.4004 52.3999H55.4004C56.0004 52.3999 56.4004 52.7999 56.4004 53.3999C56.4004 53.9999 55.9004 54.3999 55.4004 54.3999ZM51.4004 54.3999H50.4004C49.8004 54.3999 49.4004 53.9999 49.4004 53.3999C49.4004 52.7999 49.8004 52.3999 50.4004 52.3999H51.4004C52.0004 52.3999 52.4004 52.7999 52.4004 53.3999C52.4004 53.9999 51.9004 54.3999 51.4004 54.3999Z" fill="#1D4F84"/>
</g>
</g>
</svg>
